# xmcd
#
# Track frame offsets: 
#        150
#        15809
#        32101
#        44414
#        62505
#        79662
#        93532
#        108657
#        121404
#        139248
#        154438
#        168412
#        184327
#
# Disc length: 3128 seconds
#
# Revision: 0
# Processed by: cddbd v1.5.2PL0 Copyright (c) Steve Scherf et al.
# Submitted via: ExactAudioCopy v0.99pb5
#
DISCID=ac0c360d
DTITLE=Jasmine Rae - Listen Here
DYEAR=2011
DGENRE=Country
TTITLE0=Hunky Country Boys
TTITLE1=I Hate That
TTITLE2=Fixer Upper
TTITLE3=I'll Try Anything (Featuring Joe Nichols)
TTITLE4=Too Much
TTITLE5=I Faked It
TTITLE6=When I Say No
TTITLE7=If Your Love Was A Rock
TTITLE8=Sure Thing
TTITLE9=Want Me
TTITLE10=I Don't Wanna Talk About It
TTITLE11=Miss Hyde
TTITLE12=Let It Be Me
EXTD=
EXTT0=
EXTT1=
EXTT2=
EXTT3=
EXTT4=
EXTT5=
EXTT6=
EXTT7=
EXTT8=
EXTT9=
EXTT10=
EXTT11=
EXTT12=
PLAYORDER=
